<?xml version="1.0" encoding="UTF-8"?>
<svg xmlns="http://www.w3.org/2000/svg" viewBox="0 0 1000 500">
    <!-- Marmara Bölgesi -->
    <g id="marmara">
        <path id="istanbul" data-name="İstanbul" d="M400,100 C410,95 420,95 430,100 L435,110 C440,115 445,120 450,125 L445,135 C440,140 435,145 430,150 L420,145 C415,140 410,135 405,130 L400,120 Z" class="city-path"/>
        <path id="kocaeli" data-name="Kocaeli" d="M430,120 C435,115 440,115 445,120 L450,130 C455,135 460,140 465,145 L460,155 C455,160 450,165 445,170 L435,165 C430,160 425,155 420,150 L425,140 C430,135 435,130 430,120 Z" class="city-path"/>
        <path id="sakarya" data-name="Sakarya" d="M445,120 C450,115 455,115 460,120 L465,130 C470,135 475,140 480,145 L475,155 C470,160 465,165 460,170 L450,165 C445,160 440,155 435,150 L440,140 C445,135 450,130 445,120 Z" class="city-path"/>
        <path id="bursa" data-name="Bursa" d="M420,140 C425,135 430,135 435,140 L440,150 C445,155 450,160 455,165 L450,175 C445,180 440,185 435,190 L425,185 C420,180 415,175 410,170 L415,160 C420,155 425,150 420,140 Z" class="city-path"/>
        <path id="balikesir" data-name="Balıkesir" d="M400,160 C405,155 410,155 415,160 L420,170 C425,175 430,180 435,185 L430,195 C425,200 420,205 415,210 L405,205 C400,200 395,195 390,190 L395,180 C400,175 405,170 400,160 Z" class="city-path"/>
        <path id="canakkale" data-name="Çanakkale" d="M380,140 C385,135 390,135 395,140 L400,150 C405,155 410,160 415,165 L410,175 C405,180 400,185 395,190 L385,185 C380,180 375,175 370,170 L375,160 C380,155 385,150 380,140 Z" class="city-path"/>
        <path id="tekirdag" data-name="Tekirdağ" d="M380,100 C385,95 390,95 395,100 L400,110 C405,115 410,120 415,125 L410,135 C405,140 400,145 395,150 L385,145 C380,140 375,135 370,130 L375,120 C380,115 385,110 380,100 Z" class="city-path"/>
        <path id="kirklareli" data-name="Kırklareli" d="M360,80 C365,75 370,75 375,80 L380,90 C385,95 390,100 395,105 L390,115 C385,120 380,125 375,130 L365,125 C360,120 355,115 350,110 L355,100 C360,95 365,90 360,80 Z" class="city-path"/>
        <path id="edirne" data-name="Edirne" d="M340,80 C345,75 350,75 355,80 L360,90 C365,95 370,100 375,105 L370,115 C365,120 360,125 355,130 L345,125 C340,120 335,115 330,110 L335,100 C340,95 345,90 340,80 Z" class="city-path"/>
        <path id="yalova" data-name="Yalova" d="M420,100 C422,98 424,98 426,100 L428,105 C430,107 432,109 434,111 L432,116 C430,118 428,120 426,122 L424,120 C422,118 420,116 418,114 L420,109 C422,107 424,105 420,100 Z" class="city-path"/>
    </g>

    <!-- Ege Bölgesi -->
    <g id="ege">
        <path id="izmir" data-name="İzmir" d="M360,180 C365,175 370,175 375,180 L380,190 C385,195 390,200 395,205 L390,215 C385,220 380,225 375,230 L365,225 C360,220 355,215 350,210 L355,200 C360,195 365,190 360,180 Z" class="city-path"/>
        <path id="aydin" data-name="Aydın" d="M340,200 C345,195 350,195 355,200 L360,210 C365,215 370,220 375,225 L370,235 C365,240 360,245 355,250 L345,245 C340,240 335,235 330,230 L335,220 C340,215 345,210 340,200 Z" class="city-path"/>
        <path id="mugla" data-name="Muğla" d="M360,220 C365,215 370,215 375,220 L380,230 C385,235 390,240 395,245 L390,255 C385,260 380,265 375,270 L365,265 C360,260 355,255 350,250 L355,240 C360,235 365,230 360,220 Z" class="city-path"/>
        <path id="denizli" data-name="Denizli" d="M380,200 C385,195 390,195 395,200 L400,210 C405,215 410,220 415,225 L410,235 C405,240 400,245 395,250 L385,245 C380,240 375,235 370,230 L375,220 C380,215 385,210 380,200 Z" class="city-path"/>
        <path id="manisa" data-name="Manisa" d="M380,180 C385,175 390,175 395,180 L400,190 C405,195 410,200 415,205 L410,215 C405,220 400,225 395,230 L385,225 C380,220 375,215 370,210 L375,200 C380,195 385,190 380,180 Z" class="city-path"/>
        <path id="usak" data-name="Uşak" d="M400,180 C405,175 410,175 415,180 L420,190 C425,195 430,200 435,205 L430,215 C425,220 420,225 415,230 L405,225 C400,220 395,215 390,210 L395,200 C400,195 405,190 400,180 Z" class="city-path"/>
        <path id="kutahya" data-name="Kütahya" d="M420,160 C425,155 430,155 435,160 L440,170 C445,175 450,180 455,185 L450,195 C445,200 440,205 435,210 L425,205 C420,200 415,195 410,190 L415,180 C420,175 425,170 420,160 Z" class="city-path"/>
    </g>

    <!-- İç Anadolu Bölgesi -->
    <g id="ic-anadolu">
        <path id="ankara" data-name="Ankara" d="M440,180 C445,175 450,175 455,180 L460,190 C465,195 470,200 475,205 L470,215 C465,220 460,225 455,230 L445,225 C440,220 435,215 430,210 L435,200 C440,195 445,190 440,180 Z" class="city-path"/>
        <path id="konya" data-name="Konya" d="M420,220 C425,215 430,215 435,220 L440,230 C445,235 450,240 455,245 L450,255 C445,260 440,265 435,270 L425,265 C420,260 415,255 410,250 L415,240 C420,235 425,230 420,220 Z" class="city-path"/>
        <path id="eskisehir" data-name="Eskişehir" d="M440,160 C445,155 450,155 455,160 L460,170 C465,175 470,180 475,185 L470,195 C465,200 460,205 455,210 L445,205 C440,200 435,195 430,190 L435,180 C440,175 445,170 440,160 Z" class="city-path"/>
        <path id="afyonkarahisar" data-name="Afyonkarahisar" d="M400,200 C405,195 410,195 415,200 L420,210 C425,215 430,220 435,225 L430,235 C425,240 420,245 415,250 L405,245 C400,240 395,235 390,230 L395,220 C400,215 405,210 400,200 Z" class="city-path"/>
        <path id="karaman" data-name="Karaman" d="M440,240 C445,235 450,235 455,240 L460,250 C465,255 470,260 475,265 L470,275 C465,280 460,285 455,290 L445,285 C440,280 435,275 430,270 L435,260 C440,255 445,250 440,240 Z" class="city-path"/>
        <path id="kirikkale" data-name="Kırıkkale" d="M460,180 C465,175 470,175 475,180 L480,190 C485,195 490,200 495,205 L490,215 C485,220 480,225 475,230 L465,225 C460,220 455,215 450,210 L455,200 C460,195 465,190 460,180 Z" class="city-path"/>
        <path id="kirsehir" data-name="Kırşehir" d="M460,200 C465,195 470,195 475,200 L480,210 C485,215 490,220 495,225 L490,235 C485,240 480,245 475,250 L465,245 C460,240 455,235 450,230 L455,220 C460,215 465,210 460,200 Z" class="city-path"/>
        <path id="nevsehir" data-name="Nevşehir" d="M480,200 C485,195 490,195 495,200 L500,210 C505,215 510,220 515,225 L510,235 C505,240 500,245 495,250 L485,245 C480,240 475,235 470,230 L475,220 C480,215 485,210 480,200 Z" class="city-path"/>
        <path id="nigde" data-name="Niğde" d="M480,220 C485,215 490,215 495,220 L500,230 C505,235 510,240 515,245 L510,255 C505,260 500,265 495,270 L485,265 C480,260 475,255 470,250 L475,240 C480,235 485,230 480,220 Z" class="city-path"/>
        <path id="aksaray" data-name="Aksaray" d="M460,220 C465,215 470,215 475,220 L480,230 C485,235 490,240 495,245 L490,255 C485,260 480,265 475,270 L465,265 C460,260 455,255 450,250 L455,240 C460,235 465,230 460,220 Z" class="city-path"/>
    </g>

    <!-- Akdeniz Bölgesi -->
    <g id="akdeniz">
        <path id="antalya" data-name="Antalya" d="M400,240 C405,235 410,235 415,240 L420,250 C425,255 430,260 435,265 L430,275 C425,280 420,285 415,290 L405,285 C400,280 395,275 390,270 L395,260 C400,255 405,250 400,240 Z" class="city-path"/>
        <path id="mersin" data-name="Mersin" d="M440,260 C445,255 450,255 455,260 L460,270 C465,275 470,280 475,285 L470,295 C465,300 460,305 455,310 L445,305 C440,300 435,295 430,290 L435,280 C440,275 445,270 440,260 Z" class="city-path"/>
        <path id="adana" data-name="Adana" d="M460,260 C465,255 470,255 475,260 L480,270 C485,275 490,280 495,285 L490,295 C485,300 480,305 475,310 L465,305 C460,300 455,295 450,290 L455,280 C460,275 465,270 460,260 Z" class="city-path"/>
        <path id="osmaniye" data-name="Osmaniye" d="M480,260 C485,255 490,255 495,260 L500,270 C505,275 510,280 515,285 L510,295 C505,300 500,305 495,310 L485,305 C480,300 475,295 470,290 L475,280 C480,275 485,270 480,260 Z" class="city-path"/>
        <path id="hatay" data-name="Hatay" d="M500,260 C505,255 510,255 515,260 L520,270 C525,275 530,280 535,285 L530,295 C525,300 520,305 515,310 L505,305 C500,300 495,295 490,290 L495,280 C500,275 505,270 500,260 Z" class="city-path"/>
        <path id="kahramanmaras" data-name="Kahramanmaraş" d="M480,240 C485,235 490,235 495,240 L500,250 C505,255 510,260 515,265 L510,275 C505,280 500,285 495,290 L485,285 C480,280 475,275 470,270 L475,260 C480,255 485,250 480,240 Z" class="city-path"/>
        <path id="gaziantep" data-name="Gaziantep" d="M500,240 C505,235 510,235 515,240 L520,250 C525,255 530,260 535,265 L530,275 C525,280 520,285 515,290 L505,285 C500,280 495,275 490,270 L495,260 C500,255 505,250 500,240 Z" class="city-path"/>
        <path id="kilis" data-name="Kilis" d="M520,240 C522,238 524,238 526,240 L528,245 C530,247 532,249 534,251 L532,256 C530,258 528,260 526,262 L524,260 C522,258 520,256 518,254 L520,249 C522,247 524,245 520,240 Z" class="city-path"/>
        <path id="sirnak" data-name="Şırnak" d="M560,240 C565,235 570,235 575,240 L580,250 C585,255 590,260 595,265 L590,275 C585,280 580,285 575,290 L565,285 C560,280 555,275 550,270 L555,260 C560,255 565,250 560,240 Z" class="city-path"/>
        <path id="hakkari" data-name="Hakkari" d="M580,240 C585,235 590,235 595,240 L600,250 C605,255 610,260 615,265 L610,275 C605,280 600,285 595,290 L585,285 C580,280 575,275 570,270 L575,260 C580,255 585,250 580,240 Z" class="city-path"/>
    </g>

    <!-- Doğu Anadolu Bölgesi -->
    <g id="dogu-anadolu">
        <path id="erzurum" data-name="Erzurum" d="M540,180 C545,175 550,175 555,180 L560,190 C565,195 570,200 575,205 L570,215 C565,220 560,225 555,230 L545,225 C540,220 535,215 530,210 L535,200 C540,195 545,190 540,180 Z" class="city-path"/>
        <path id="kars" data-name="Kars" d="M560,160 C565,155 570,155 575,160 L580,170 C585,175 590,180 595,185 L590,195 C585,200 580,205 575,210 L565,205 C560,200 555,195 550,190 L555,180 C560,175 565,170 560,160 Z" class="city-path"/>
        <path id="agri" data-name="Ağrı" d="M580,160 C585,155 590,155 595,160 L600,170 C605,175 610,180 615,185 L610,195 C605,200 600,205 595,210 L585,205 C580,200 575,195 570,190 L575,180 C580,175 585,170 580,160 Z" class="city-path"/>
        <path id="igdir" data-name="Iğdır" d="M600,160 C605,155 610,155 615,160 L620,170 C625,175 630,180 635,185 L630,195 C625,200 620,205 615,210 L605,205 C600,200 595,195 590,190 L595,180 C600,175 605,170 600,160 Z" class="city-path"/>
        <path id="ardahan" data-name="Ardahan" d="M560,140 C565,135 570,135 575,140 L580,150 C585,155 590,160 595,165 L590,175 C585,180 580,185 575,190 L565,185 C560,180 555,175 550,170 L555,160 C560,155 565,150 560,140 Z" class="city-path"/>
        <path id="artvin" data-name="Artvin" d="M540,140 C545,135 550,135 555,140 L560,150 C565,155 570,160 575,165 L570,175 C565,180 560,185 555,190 L545,185 C540,180 535,175 530,170 L535,160 C540,155 545,150 540,140 Z" class="city-path"/>
        <path id="rize" data-name="Rize" d="M520,140 C525,135 530,135 535,140 L540,150 C545,155 550,160 555,165 L550,175 C545,180 540,185 535,190 L525,185 C520,180 515,175 510,170 L515,160 C520,155 525,150 520,140 Z" class="city-path"/>
        <path id="trabzon" data-name="Trabzon" d="M500,140 C505,135 510,135 515,140 L520,150 C525,155 530,160 535,165 L530,175 C525,180 520,185 515,190 L505,185 C500,180 495,175 490,170 L495,160 C500,155 505,150 500,140 Z" class="city-path"/>
        <path id="giresun" data-name="Giresun" d="M480,140 C485,135 490,135 495,140 L500,150 C505,155 510,160 515,165 L510,175 C505,180 500,185 495,190 L485,185 C480,180 475,175 470,170 L475,160 C480,155 485,150 480,140 Z" class="city-path"/>
        <path id="gumushane" data-name="Gümüşhane" d="M480,160 C485,155 490,155 495,160 L500,170 C505,175 510,180 515,185 L510,195 C505,200 500,205 495,210 L485,205 C480,200 475,195 470,190 L475,180 C480,175 485,170 480,160 Z" class="city-path"/>
        <path id="bayburt" data-name="Bayburt" d="M500,160 C505,155 510,155 515,160 L520,170 C525,175 530,180 535,185 L530,195 C525,200 520,205 515,210 L505,205 C500,200 495,195 490,190 L495,180 C500,175 505,170 500,160 Z" class="city-path"/>
        <path id="erzincan" data-name="Erzincan" d="M520,160 C525,155 530,155 535,160 L540,170 C545,175 550,180 555,185 L550,195 C545,200 540,205 535,210 L525,205 C520,200 515,195 510,190 L515,180 C520,175 525,170 520,160 Z" class="city-path"/>
        <path id="tunceli" data-name="Tunceli" d="M500,180 C505,175 510,175 515,180 L520,190 C525,195 530,200 535,205 L530,215 C525,220 520,225 515,230 L505,225 C500,220 495,215 490,210 L495,200 C500,195 505,190 500,180 Z" class="city-path"/>
        <path id="bingol" data-name="Bingöl" d="M520,200 C525,195 530,195 535,200 L540,210 C545,215 550,220 555,225 L550,235 C545,240 540,245 535,250 L525,245 C520,240 515,235 510,230 L515,220 C520,215 525,210 520,200 Z" class="city-path"/>
        <path id="mus" data-name="Muş" d="M540,200 C545,195 550,195 555,200 L560,210 C565,215 570,220 575,225 L570,235 C565,240 560,245 555,250 L545,245 C540,240 535,235 530,230 L535,220 C540,215 545,210 540,200 Z" class="city-path"/>
        <path id="bitlis" data-name="Bitlis" d="M560,200 C565,195 570,195 575,200 L580,210 C585,215 590,220 595,225 L590,235 C585,240 580,245 575,250 L565,245 C560,240 555,235 550,230 L555,220 C560,215 565,210 560,200 Z" class="city-path"/>
        <path id="van" data-name="Van" d="M580,200 C585,195 590,195 595,200 L600,210 C605,215 610,220 615,225 L610,235 C605,240 600,245 595,250 L585,245 C580,240 575,235 570,230 L575,220 C580,215 585,210 580,200 Z" class="city-path"/>
    </g>

    <!-- Güneydoğu Anadolu Bölgesi -->
    <g id="guneydogu-anadolu">
        <path id="diyarbakir" data-name="Diyarbakır" d="M520,220 C525,215 530,215 535,220 L540,230 C545,235 550,240 555,245 L550,255 C545,260 540,265 535,270 L525,265 C520,260 515,255 510,250 L515,240 C520,235 525,230 520,220 Z" class="city-path"/>
        <path id="mardin" data-name="Mardin" d="M540,240 C545,235 550,235 555,240 L560,250 C565,255 570,260 575,265 L570,275 C565,280 560,285 555,290 L545,285 C540,280 535,275 530,270 L535,260 C540,255 545,250 540,240 Z" class="city-path"/>
        <path id="batman" data-name="Batman" d="M560,220 C565,215 570,215 575,220 L580,230 C585,235 590,240 595,245 L590,255 C585,260 580,265 575,270 L565,265 C560,260 555,255 550,250 L555,240 C560,235 565,230 560,220 Z" class="city-path"/>
        <path id="siirt" data-name="Siirt" d="M580,220 C585,215 590,215 595,220 L600,230 C605,235 610,240 615,245 L610,255 C605,260 600,265 595,270 L585,265 C580,260 575,255 570,250 L575,240 C580,235 585,230 580,220 Z" class="city-path"/>
        <path id="sirnak" data-name="Şırnak" d="M560,240 C565,235 570,235 575,240 L580,250 C585,255 590,260 595,265 L590,275 C585,280 580,285 575,290 L565,285 C560,280 555,275 550,270 L555,260 C560,255 565,250 560,240 Z" class="city-path"/>
    </g>

    <!-- Karadeniz Bölgesi -->
    <g id="karadeniz">
        <path id="zonguldak" data-name="Zonguldak" d="M440,80 C445,75 450,75 455,80 L460,90 C465,95 470,100 475,105 L470,115 C465,120 460,125 455,130 L445,125 C440,120 435,115 430,110 L435,100 C440,95 445,90 440,80 Z" class="city-path"/>
        <path id="bartin" data-name="Bartın" d="M440,100 C445,95 450,95 455,100 L460,110 C465,115 470,120 475,125 L470,135 C465,140 460,145 455,150 L445,145 C440,140 435,135 430,130 L435,120 C440,115 445,110 440,100 Z" class="city-path"/>
        <path id="karabuk" data-name="Karabük" d="M460,100 C465,95 470,95 475,100 L480,110 C485,115 490,120 495,125 L490,135 C485,140 480,145 475,150 L465,145 C460,140 455,135 450,130 L455,120 C460,115 465,110 460,100 Z" class="city-path"/>
        <path id="kastamonu" data-name="Kastamonu" d="M460,80 C465,75 470,75 475,80 L480,90 C485,95 490,100 495,105 L490,115 C485,120 480,125 475,130 L465,125 C460,120 455,115 450,110 L455,100 C460,95 465,90 460,80 Z" class="city-path"/>
        <path id="sinop" data-name="Sinop" d="M480,60 C485,55 490,55 495,60 L500,70 C505,75 510,80 515,85 L510,95 C505,100 500,105 495,110 L485,105 C480,100 475,95 470,90 L475,80 C480,75 485,70 480,60 Z" class="city-path"/>
        <path id="samsun" data-name="Samsun" d="M480,100 C485,95 490,95 495,100 L500,110 C505,115 510,120 515,125 L510,135 C505,140 500,145 495,150 L485,145 C480,140 475,135 470,130 L475,120 C480,115 485,110 480,100 Z" class="city-path"/>
        <path id="ordu" data-name="Ordu" d="M480,120 C485,115 490,115 495,120 L500,130 C505,135 510,140 515,145 L510,155 C505,160 500,165 495,170 L485,165 C480,160 475,155 470,150 L475,140 C480,135 485,130 480,120 Z" class="city-path"/>
        <path id="tokat" data-name="Tokat" d="M500,120 C505,115 510,115 515,120 L520,130 C525,135 530,140 535,145 L530,155 C525,160 520,165 515,170 L505,165 C500,160 495,155 490,150 L495,140 C500,135 505,130 500,120 Z" class="city-path"/>
        <path id="amasya" data-name="Amasya" d="M480,140 C485,135 490,135 495,140 L500,150 C505,155 510,160 515,165 L510,175 C505,180 500,185 495,190 L485,185 C480,180 475,175 470,170 L475,160 C480,155 485,150 480,140 Z" class="city-path"/>
        <path id="corum" data-name="Çorum" d="M460,140 C465,135 470,135 475,140 L480,150 C485,155 490,160 495,165 L490,175 C485,180 480,185 475,190 L465,185 C460,180 455,175 450,170 L455,160 C460,155 465,150 460,140 Z" class="city-path"/>
        <path id="yozgat" data-name="Yozgat" d="M460,160 C465,155 470,155 475,160 L480,170 C485,175 490,180 495,185 L490,195 C485,200 480,205 475,210 L465,205 C460,200 455,195 450,190 L455,180 C460,175 465,170 460,160 Z" class="city-path"/>
        <path id="sivas" data-name="Sivas" d="M480,180 C485,175 490,175 495,180 L500,190 C505,195 510,200 515,205 L510,215 C505,220 500,225 495,230 L485,225 C480,220 475,215 470,210 L475,200 C480,195 485,190 480,180 Z" class="city-path"/>
        <path id="malatya" data-name="Malatya" d="M500,200 C505,195 510,195 515,200 L520,210 C525,215 530,220 535,225 L530,235 C525,240 520,245 515,250 L505,245 C500,240 495,235 490,230 L495,220 C500,215 505,210 500,200 Z" class="city-path"/>
        <path id="elazig" data-name="Elazığ" d="M520,200 C525,195 530,195 535,200 L540,210 C545,215 550,220 555,225 L550,235 C545,240 540,245 535,250 L525,245 C520,240 515,235 510,230 L515,220 C520,215 525,210 520,200 Z" class="city-path"/>
    </g>
</svg> 